<svg width="1024" height="372" viewBox="0 0 1024 372" fill="none" xmlns="http://www.w3.org/2000/svg">
<path d="M0 341.452C144.045 341.452 246.92 316.65 341.333 318.161C561.203 321.679 457.381 217.13 682.667 217.13C927.97 217.13 869.259 124.911 1024 124.911" stroke="#5F82FF" stroke-width="3"/>
<path d="M341.333 318.161C246.92 316.65 144.045 341.452 0 341.452V371.667H1024V124.911C869.259 124.911 927.97 217.13 682.667 217.13C457.381 217.13 561.203 321.679 341.333 318.161Z" fill="url(#paint0_linear)" fill-opacity="0.4"/>
<line x1="947.5" y1="-2.18557e-08" x2="947.5" y2="266" stroke="#D8E0F7"/>
<g filter="url(#filter0_d)">
<circle cx="947" cy="137" r="10" fill="white"/>
<circle cx="947" cy="137" r="9" stroke="#5E80FE" stroke-width="2"/>
</g>
<mask id="path-6-inside-1" fill="white">
<path fill-rule="evenodd" clip-rule="evenodd" d="M1007 21C1007 19.3431 1005.66 18 1004 18H890C888.343 18 887 19.3431 887 21V97.5703C887 99.2271 888.343 100.57 890 100.57H939.226C940.223 100.57 941.154 101.065 941.712 101.89L944.514 106.037C945.704 107.797 948.296 107.797 949.485 106.037L952.287 101.89C952.845 101.065 953.777 100.57 954.773 100.57H1004C1005.66 100.57 1007 99.2271 1007 97.5703V21Z"/>
</mask>
<path fill-rule="evenodd" clip-rule="evenodd" d="M1007 21C1007 19.3431 1005.66 18 1004 18H890C888.343 18 887 19.3431 887 21V97.5703C887 99.2271 888.343 100.57 890 100.57H939.226C940.223 100.57 941.154 101.065 941.712 101.89L944.514 106.037C945.704 107.797 948.296 107.797 949.485 106.037L952.287 101.89C952.845 101.065 953.777 100.57 954.773 100.57H1004C1005.66 100.57 1007 99.2271 1007 97.5703V21Z" fill="white"/>
<path d="M952.287 101.89L951.459 101.331L952.287 101.89ZM949.485 106.037L950.314 106.597L949.485 106.037ZM941.712 101.89L940.884 102.45L941.712 101.89ZM890 19H1004V17H890V19ZM888 97.5703V21H886V97.5703H888ZM939.226 99.5703H890V101.57H939.226V99.5703ZM945.343 105.477L942.541 101.331L940.884 102.45L943.686 106.597L945.343 105.477ZM951.459 101.331L948.657 105.477L950.314 106.597L953.116 102.45L951.459 101.331ZM1004 99.5703H954.773V101.57H1004V99.5703ZM1006 21V97.5703H1008V21H1006ZM1004 101.57C1006.21 101.57 1008 99.7794 1008 97.5703H1006C1006 98.6749 1005.1 99.5703 1004 99.5703V101.57ZM953.116 102.45C953.488 101.9 954.109 101.57 954.773 101.57V99.5703C953.445 99.5703 952.203 100.23 951.459 101.331L953.116 102.45ZM943.686 106.597C945.272 108.944 948.728 108.944 950.314 106.597L948.657 105.477C947.864 106.65 946.136 106.65 945.343 105.477L943.686 106.597ZM939.226 101.57C939.891 101.57 940.512 101.9 940.884 102.45L942.541 101.331C941.797 100.23 940.555 99.5703 939.226 99.5703V101.57ZM886 97.5703C886 99.7794 887.791 101.57 890 101.57V99.5703C888.895 99.5703 888 98.6749 888 97.5703H886ZM1004 19C1005.1 19 1006 19.8954 1006 21H1008C1008 18.7909 1006.21 17 1004 17V19ZM890 17C887.791 17 886 18.7909 886 21H888C888 19.8954 888.895 19 890 19V17Z" fill="#D8E0F7" mask="url(#path-6-inside-1)"/>
<path d="M924.826 61.3999C924.826 48.9649 934.828 38.8843 947.167 38.8843C949.441 38.8843 951.635 39.2267 953.703 39.8632" stroke="#5F82FF" stroke-width="4" stroke-linecap="round" stroke-linejoin="round"/>
<path fill-rule="evenodd" clip-rule="evenodd" d="M942.359 66.2457C945.014 68.9218 949.319 68.9218 951.974 66.2457C954.63 63.5696 965.621 44.7583 964.65 43.7793C963.679 42.8004 945.014 53.8786 942.359 56.5547C939.703 59.2308 939.703 63.5696 942.359 66.2457ZM947.166 63.3584C948.239 63.3584 949.109 62.4818 949.109 61.4005C949.109 60.3192 948.239 59.4427 947.166 59.4427C946.093 59.4427 945.224 60.3192 945.224 61.4005C945.224 62.4818 946.093 63.3584 947.166 63.3584Z" fill="#5F82FF"/>
<ellipse cx="927.741" cy="73.1473" rx="1.94265" ry="1.95788" fill="#5F82FF"/>
<ellipse cx="935.51" cy="80.9789" rx="1.94265" ry="1.95788" fill="#5F82FF"/>
<ellipse cx="947.166" cy="83.9149" rx="1.94265" ry="1.95788" fill="#5F82FF"/>
<ellipse cx="958.823" cy="80.9789" rx="1.94265" ry="1.95788" fill="#5F82FF"/>
<ellipse cx="965.622" cy="73.1473" rx="1.94265" ry="1.95788" fill="#5F82FF"/>
<ellipse cx="968.535" cy="61.3993" rx="1.94265" ry="1.95788" fill="#5F82FF"/>
<line x1="657.5" y1="167" x2="657.5" y2="318" stroke="#D8E0F7"/>
<g filter="url(#filter1_d)">
<circle cx="657" cy="218" r="10" fill="white"/>
<circle cx="657" cy="218" r="9" stroke="#5E80FE" stroke-width="2"/>
</g>
<mask id="path-19-inside-2" fill="white">
<path fill-rule="evenodd" clip-rule="evenodd" d="M717 102C717 100.343 715.657 99 714 99H600C598.343 99 597 100.343 597 102V178.57C597 180.227 598.343 181.57 600 181.57H649.227C650.223 181.57 651.155 182.065 651.713 182.89L654.514 187.036C655.704 188.796 658.296 188.796 659.485 187.036L662.287 182.89C662.845 182.065 663.776 181.57 664.772 181.57H714C715.657 181.57 717 180.227 717 178.57V102Z"/>
</mask>
<path fill-rule="evenodd" clip-rule="evenodd" d="M717 102C717 100.343 715.657 99 714 99H600C598.343 99 597 100.343 597 102V178.57C597 180.227 598.343 181.57 600 181.57H649.227C650.223 181.57 651.155 182.065 651.713 182.89L654.514 187.036C655.704 188.796 658.296 188.796 659.485 187.036L662.287 182.89C662.845 182.065 663.776 181.57 664.772 181.57H714C715.657 181.57 717 180.227 717 178.57V102Z" fill="white"/>
<path d="M662.287 182.89L661.458 182.331L662.287 182.89ZM654.514 187.036L653.686 187.596L654.514 187.036ZM659.485 187.036L658.657 186.476L659.485 187.036ZM651.713 182.89L652.541 182.331L651.713 182.89ZM600 100H714V98H600V100ZM598 178.57V102H596V178.57H598ZM649.227 180.57H600V182.57H649.227V180.57ZM655.343 186.476L652.541 182.331L650.884 183.45L653.686 187.596L655.343 186.476ZM661.458 182.331L658.657 186.476L660.314 187.596L663.115 183.45L661.458 182.331ZM714 180.57H664.772V182.57H714V180.57ZM716 102V178.57H718V102H716ZM714 182.57C716.209 182.57 718 180.779 718 178.57H716C716 179.675 715.105 180.57 714 180.57V182.57ZM663.115 183.45C663.487 182.9 664.108 182.57 664.772 182.57V180.57C663.444 180.57 662.202 181.23 661.458 182.331L663.115 183.45ZM653.686 187.596C655.272 189.943 658.728 189.943 660.314 187.596L658.657 186.476C657.864 187.649 656.136 187.649 655.343 186.476L653.686 187.596ZM649.227 182.57C649.891 182.57 650.512 182.9 650.884 183.45L652.541 182.331C651.797 181.23 650.556 180.57 649.227 180.57V182.57ZM596 178.57C596 180.779 597.791 182.57 600 182.57V180.57C598.895 180.57 598 179.675 598 178.57H596ZM714 100C715.105 100 716 100.895 716 102H718C718 99.7909 716.209 98 714 98V100ZM600 98C597.791 98 596 99.7909 596 102H598C598 100.895 598.895 100 600 100V98Z" fill="#D8E0F7" mask="url(#path-19-inside-2)"/>
<path d="M634.827 142.399C634.827 129.964 644.829 119.883 657.168 119.883C659.442 119.883 661.636 120.226 663.704 120.862" stroke="#5F82FF" stroke-width="4" stroke-linecap="round" stroke-linejoin="round"/>
<path fill-rule="evenodd" clip-rule="evenodd" d="M652.36 147.246C655.015 149.922 659.32 149.922 661.975 147.246C664.631 144.57 675.622 125.758 674.651 124.779C673.68 123.8 655.015 134.879 652.36 137.555C649.704 140.231 649.704 144.57 652.36 147.246ZM657.167 144.358C658.24 144.358 659.11 143.482 659.11 142.401C659.11 141.319 658.24 140.443 657.167 140.443C656.094 140.443 655.225 141.319 655.225 142.401C655.225 143.482 656.094 144.358 657.167 144.358Z" fill="#5F82FF"/>
<ellipse cx="637.741" cy="154.146" rx="1.94265" ry="1.95788" fill="#5F82FF"/>
<ellipse cx="645.51" cy="161.978" rx="1.94265" ry="1.95788" fill="#5F82FF"/>
<ellipse cx="657.167" cy="164.915" rx="1.94265" ry="1.95788" fill="#5F82FF"/>
<ellipse cx="668.823" cy="161.978" rx="1.94265" ry="1.95788" fill="#5F82FF"/>
<ellipse cx="675.622" cy="154.146" rx="1.94265" ry="1.95788" fill="#5F82FF"/>
<ellipse cx="678.535" cy="142.399" rx="1.94265" ry="1.95788" fill="#5F82FF"/>
<line x1="366.5" y1="304" x2="366.5" y2="352" stroke="#D8E0F7"/>
<g filter="url(#filter2_d)">
<circle cx="366" cy="318" r="10" fill="white"/>
<circle cx="366" cy="318" r="9" stroke="#5E80FE" stroke-width="2"/>
</g>
<mask id="path-32-inside-3" fill="white">
<path fill-rule="evenodd" clip-rule="evenodd" d="M426 202C426 200.343 424.657 199 423 199H309C307.343 199 306 200.343 306 202V278.57C306 280.227 307.343 281.57 309 281.57H358.227C359.223 281.57 360.155 282.065 360.713 282.89L363.514 287.036C364.704 288.796 367.296 288.796 368.485 287.036L371.287 282.89C371.845 282.065 372.776 281.57 373.772 281.57H423C424.657 281.57 426 280.227 426 278.57V202Z"/>
</mask>
<path fill-rule="evenodd" clip-rule="evenodd" d="M426 202C426 200.343 424.657 199 423 199H309C307.343 199 306 200.343 306 202V278.57C306 280.227 307.343 281.57 309 281.57H358.227C359.223 281.57 360.155 282.065 360.713 282.89L363.514 287.036C364.704 288.796 367.296 288.796 368.485 287.036L371.287 282.89C371.845 282.065 372.776 281.57 373.772 281.57H423C424.657 281.57 426 280.227 426 278.57V202Z" fill="white"/>
<path d="M371.287 282.89L370.458 282.331L371.287 282.89ZM363.514 287.036L362.686 287.596L363.514 287.036ZM368.485 287.036L367.657 286.476L368.485 287.036ZM360.713 282.89L361.541 282.331L360.713 282.89ZM309 200H423V198H309V200ZM307 278.57V202H305V278.57H307ZM358.227 280.57H309V282.57H358.227V280.57ZM364.343 286.476L361.541 282.331L359.884 283.45L362.686 287.596L364.343 286.476ZM370.458 282.331L367.657 286.476L369.314 287.596L372.115 283.45L370.458 282.331ZM423 280.57H373.772V282.57H423V280.57ZM425 202V278.57H427V202H425ZM423 282.57C425.209 282.57 427 280.779 427 278.57H425C425 279.675 424.105 280.57 423 280.57V282.57ZM372.115 283.45C372.487 282.9 373.108 282.57 373.772 282.57V280.57C372.444 280.57 371.202 281.23 370.458 282.331L372.115 283.45ZM362.686 287.596C364.272 289.943 367.728 289.943 369.314 287.596L367.657 286.476C366.864 287.649 365.136 287.649 364.343 286.476L362.686 287.596ZM358.227 282.57C358.891 282.57 359.512 282.9 359.884 283.45L361.541 282.331C360.797 281.23 359.556 280.57 358.227 280.57V282.57ZM305 278.57C305 280.779 306.791 282.57 309 282.57V280.57C307.895 280.57 307 279.675 307 278.57H305ZM423 200C424.105 200 425 200.895 425 202H427C427 199.791 425.209 198 423 198V200ZM309 198C306.791 198 305 199.791 305 202H307C307 200.895 307.895 200 309 200V198Z" fill="#D8E0F7" mask="url(#path-32-inside-3)"/>
<path d="M343.826 242.399C343.826 229.964 353.828 219.883 366.167 219.883C368.441 219.883 370.635 220.226 372.703 220.862" stroke="#5F82FF" stroke-width="4" stroke-linecap="round" stroke-linejoin="round"/>
<path fill-rule="evenodd" clip-rule="evenodd" d="M361.359 247.246C364.014 249.922 368.319 249.922 370.974 247.246C373.63 244.57 384.621 225.758 383.65 224.779C382.679 223.8 364.014 234.879 361.359 237.555C358.703 240.231 358.703 244.57 361.359 247.246ZM366.166 244.358C367.239 244.358 368.109 243.482 368.109 242.401C368.109 241.319 367.239 240.443 366.166 240.443C365.093 240.443 364.224 241.319 364.224 242.401C364.224 243.482 365.093 244.358 366.166 244.358Z" fill="#5F82FF"/>
<ellipse cx="346.741" cy="254.146" rx="1.94265" ry="1.95788" fill="#5F82FF"/>
<ellipse cx="354.511" cy="261.978" rx="1.94265" ry="1.95788" fill="#5F82FF"/>
<ellipse cx="366.166" cy="264.915" rx="1.94265" ry="1.95788" fill="#5F82FF"/>
<ellipse cx="377.822" cy="261.978" rx="1.94265" ry="1.95788" fill="#5F82FF"/>
<ellipse cx="384.622" cy="254.146" rx="1.94265" ry="1.95788" fill="#5F82FF"/>
<ellipse cx="387.535" cy="242.399" rx="1.94265" ry="1.95788" fill="#5F82FF"/>
<line x1="76.5" y1="149" x2="76.5" y2="362" stroke="#D8E0F7"/>
<g filter="url(#filter3_d)">
<circle cx="77" cy="339" r="10" fill="white"/>
<circle cx="77" cy="339" r="9" stroke="#5E80FE" stroke-width="2"/>
</g>
<mask id="path-45-inside-4" fill="white">
<path fill-rule="evenodd" clip-rule="evenodd" d="M137 223C137 221.343 135.657 220 134 220H20C18.3431 220 17 221.343 17 223V299.57C17 301.227 18.3431 302.57 20 302.57H69.2273C70.2237 302.57 71.1551 303.065 71.713 303.89L74.5151 308.037C75.7047 309.797 78.2967 309.797 79.4863 308.037L82.2884 303.89C82.8463 303.065 83.7776 302.57 84.774 302.57H134C135.657 302.57 137 301.227 137 299.57V223Z"/>
</mask>
<path fill-rule="evenodd" clip-rule="evenodd" d="M137 223C137 221.343 135.657 220 134 220H20C18.3431 220 17 221.343 17 223V299.57C17 301.227 18.3431 302.57 20 302.57H69.2273C70.2237 302.57 71.1551 303.065 71.713 303.89L74.5151 308.037C75.7047 309.797 78.2967 309.797 79.4863 308.037L82.2884 303.89C82.8463 303.065 83.7776 302.57 84.774 302.57H134C135.657 302.57 137 301.227 137 299.57V223Z" fill="white"/>
<path d="M82.2884 303.89L81.4598 303.331L82.2884 303.89ZM79.4863 308.037L80.3148 308.597L79.4863 308.037ZM71.713 303.89L70.8844 304.45L71.713 303.89ZM20 221H134V219H20V221ZM18 299.57V223H16V299.57H18ZM69.2273 301.57H20V303.57H69.2273V301.57ZM75.3436 307.477L72.5415 303.331L70.8844 304.45L73.6865 308.597L75.3436 307.477ZM81.4598 303.331L78.6577 307.477L80.3148 308.597L83.1169 304.45L81.4598 303.331ZM134 301.57H84.774V303.57H134V301.57ZM136 223V299.57H138V223H136ZM134 303.57C136.209 303.57 138 301.779 138 299.57H136C136 300.675 135.105 301.57 134 301.57V303.57ZM83.1169 304.45C83.4888 303.9 84.1097 303.57 84.774 303.57V301.57C83.4455 301.57 82.2037 302.23 81.4598 303.331L83.1169 304.45ZM73.6865 308.597C75.2727 310.944 78.7287 310.944 80.3148 308.597L78.6577 307.477C77.8647 308.65 76.1367 308.65 75.3436 307.477L73.6865 308.597ZM69.2273 303.57C69.8916 303.57 70.5125 303.9 70.8844 304.45L72.5415 303.331C71.7976 302.23 70.5558 301.57 69.2273 301.57V303.57ZM16 299.57C16 301.779 17.7909 303.57 20 303.57V301.57C18.8954 301.57 18 300.675 18 299.57H16ZM134 221C135.105 221 136 221.895 136 223H138C138 220.791 136.209 219 134 219V221ZM20 219C17.7909 219 16 220.791 16 223H18C18 221.895 18.8954 221 20 221V219Z" fill="#D8E0F7" mask="url(#path-45-inside-4)"/>
<path d="M54.8271 263.4C54.8271 250.965 64.8293 240.884 77.1676 240.884C79.4416 240.884 81.6363 241.227 83.7037 241.863" stroke="#5F82FF" stroke-width="4" stroke-linecap="round" stroke-linejoin="round"/>
<path fill-rule="evenodd" clip-rule="evenodd" d="M72.3606 268.246C75.0159 270.922 79.3209 270.922 81.9762 268.246C84.6315 265.57 95.6234 246.758 94.6521 245.779C93.6808 244.8 75.0159 255.879 72.3606 258.555C69.7053 261.231 69.7053 265.57 72.3606 268.246ZM77.1674 265.358C78.2403 265.358 79.11 264.482 79.11 263.401C79.11 262.319 78.2403 261.443 77.1674 261.443C76.0945 261.443 75.2248 262.319 75.2248 263.401C75.2248 264.482 76.0945 265.358 77.1674 265.358Z" fill="#5F82FF"/>
<ellipse cx="57.741" cy="275.147" rx="1.94265" ry="1.95788" fill="#5F82FF"/>
<ellipse cx="65.5115" cy="282.979" rx="1.94265" ry="1.95788" fill="#5F82FF"/>
<ellipse cx="77.1673" cy="285.916" rx="1.94265" ry="1.95788" fill="#5F82FF"/>
<ellipse cx="88.823" cy="282.979" rx="1.94265" ry="1.95788" fill="#5F82FF"/>
<ellipse cx="95.6218" cy="275.147" rx="1.94265" ry="1.95788" fill="#5F82FF"/>
<ellipse cx="98.5364" cy="263.4" rx="1.94265" ry="1.95788" fill="#5F82FF"/>
<defs>
<filter id="filter0_d" x="922" y="112" width="50" height="50" filterUnits="userSpaceOnUse" color-interpolation-filters="sRGB">
<feFlood flood-opacity="0" result="BackgroundImageFix"/>
<feColorMatrix in="SourceAlpha" type="matrix" values="0 0 0 0 0 0 0 0 0 0 0 0 0 0 0 0 0 0 127 0"/>
<feOffset/>
<feGaussianBlur stdDeviation="7.5"/>
<feColorMatrix type="matrix" values="0 0 0 0 0.323144 0 0 0 0 0.512664 0 0 0 0 1 0 0 0 0.25 0"/>
<feBlend mode="normal" in2="BackgroundImageFix" result="effect1_dropShadow"/>
<feBlend mode="normal" in="SourceGraphic" in2="effect1_dropShadow" result="shape"/>
</filter>
<filter id="filter1_d" x="632" y="193" width="50" height="50" filterUnits="userSpaceOnUse" color-interpolation-filters="sRGB">
<feFlood flood-opacity="0" result="BackgroundImageFix"/>
<feColorMatrix in="SourceAlpha" type="matrix" values="0 0 0 0 0 0 0 0 0 0 0 0 0 0 0 0 0 0 127 0"/>
<feOffset/>
<feGaussianBlur stdDeviation="7.5"/>
<feColorMatrix type="matrix" values="0 0 0 0 0.323144 0 0 0 0 0.512664 0 0 0 0 1 0 0 0 0.25 0"/>
<feBlend mode="normal" in2="BackgroundImageFix" result="effect1_dropShadow"/>
<feBlend mode="normal" in="SourceGraphic" in2="effect1_dropShadow" result="shape"/>
</filter>
<filter id="filter2_d" x="341" y="293" width="50" height="50" filterUnits="userSpaceOnUse" color-interpolation-filters="sRGB">
<feFlood flood-opacity="0" result="BackgroundImageFix"/>
<feColorMatrix in="SourceAlpha" type="matrix" values="0 0 0 0 0 0 0 0 0 0 0 0 0 0 0 0 0 0 127 0"/>
<feOffset/>
<feGaussianBlur stdDeviation="7.5"/>
<feColorMatrix type="matrix" values="0 0 0 0 0.323144 0 0 0 0 0.512664 0 0 0 0 1 0 0 0 0.25 0"/>
<feBlend mode="normal" in2="BackgroundImageFix" result="effect1_dropShadow"/>
<feBlend mode="normal" in="SourceGraphic" in2="effect1_dropShadow" result="shape"/>
</filter>
<filter id="filter3_d" x="52" y="314" width="50" height="50" filterUnits="userSpaceOnUse" color-interpolation-filters="sRGB">
<feFlood flood-opacity="0" result="BackgroundImageFix"/>
<feColorMatrix in="SourceAlpha" type="matrix" values="0 0 0 0 0 0 0 0 0 0 0 0 0 0 0 0 0 0 127 0"/>
<feOffset/>
<feGaussianBlur stdDeviation="7.5"/>
<feColorMatrix type="matrix" values="0 0 0 0 0.323144 0 0 0 0 0.512664 0 0 0 0 1 0 0 0 0.25 0"/>
<feBlend mode="normal" in2="BackgroundImageFix" result="effect1_dropShadow"/>
<feBlend mode="normal" in="SourceGraphic" in2="effect1_dropShadow" result="shape"/>
</filter>
<linearGradient id="paint0_linear" x1="197.883" y1="371.981" x2="197.883" y2="48.1148" gradientUnits="userSpaceOnUse">
<stop stop-color="#4B71FF" stop-opacity="0"/>
<stop offset="1" stop-color="#6B89F8"/>
</linearGradient>
</defs>
</svg>
