<svg width="1920" height="620" viewBox="0 0 1920 620" fill="none" xmlns="http://www.w3.org/2000/svg">
<path d="M0 562.956C270.084 562.956 462.975 516.486 640 519.316C1052.26 525.908 857.589 330.014 1280 330.014C1739.94 330.014 1629.86 157.224 1920 157.224" stroke="#5F82FF" stroke-width="3"/>
<path d="M640 519.316C462.975 516.486 270.084 562.956 0 562.956V619.57H1920V157.224C1629.86 157.224 1739.94 330.014 1280 330.014C857.589 330.014 1052.26 525.908 640 519.316Z" fill="url(#paint0_linear)" fill-opacity="0.4"/>
<line x1="1231.65" y1="266.482" x2="1231.65" y2="518.307" stroke="#D8E0F7"/>
<g filter="url(#filter0_d)">
<circle cx="1231.81" cy="331.103" r="9.99306" fill="white"/>
<circle cx="1231.81" cy="331.103" r="8.99306" stroke="#5E80FE" stroke-width="2"/>
</g>
<line x1="1775.27" x2="1775.27" y2="422.373" stroke="#D8E0F7"/>
<g filter="url(#filter1_d)">
<circle cx="1775.43" cy="179.209" r="9.99306" fill="white"/>
<circle cx="1775.43" cy="179.209" r="8.99306" stroke="#5E80FE" stroke-width="2"/>
</g>
<line x1="686.69" y1="503.65" x2="686.69" y2="582.262" stroke="#D8E0F7"/>
<line x1="143.068" y1="349.091" x2="143.068" y2="602.248" stroke="#D8E0F7"/>
<g filter="url(#filter2_d)">
<circle cx="143.234" cy="558.945" r="9.99306" fill="white"/>
<circle cx="143.234" cy="558.945" r="8.99306" stroke="#5E80FE" stroke-width="2"/>
</g>
<g filter="url(#filter3_d)">
<circle cx="686.856" cy="518.973" r="9.99306" fill="white"/>
<circle cx="686.856" cy="518.973" r="8.99306" stroke="#5E80FE" stroke-width="2"/>
</g>
<mask id="path-15-inside-1" fill="white">
<path fill-rule="evenodd" clip-rule="evenodd" d="M748.813 402.722C748.813 401.066 747.47 399.722 745.813 399.722H629.232C627.575 399.722 626.232 401.066 626.232 402.722V481.01C626.232 482.667 627.575 484.01 629.232 484.01H679.617C680.613 484.01 681.544 484.505 682.102 485.33L685.037 489.67C686.227 491.43 688.817 491.43 690.007 489.67L692.943 485.33C693.501 484.505 694.432 484.01 695.428 484.01H745.813C747.47 484.01 748.813 482.667 748.813 481.01V402.722Z"/>
</mask>
<path fill-rule="evenodd" clip-rule="evenodd" d="M748.813 402.722C748.813 401.066 747.47 399.722 745.813 399.722H629.232C627.575 399.722 626.232 401.066 626.232 402.722V481.01C626.232 482.667 627.575 484.01 629.232 484.01H679.617C680.613 484.01 681.544 484.505 682.102 485.33L685.037 489.67C686.227 491.43 688.817 491.43 690.007 489.67L692.943 485.33C693.501 484.505 694.432 484.01 695.428 484.01H745.813C747.47 484.01 748.813 482.667 748.813 481.01V402.722Z" fill="white"/>
<path d="M692.943 485.33L693.771 485.89L692.943 485.33ZM690.007 489.67L689.179 489.11L690.007 489.67ZM682.102 485.33L682.93 484.77L682.93 484.77L682.102 485.33ZM629.232 400.722H745.813V398.722H629.232V400.722ZM627.232 481.01V402.722H625.232V481.01H627.232ZM679.617 483.01H629.232V485.01H679.617V483.01ZM685.865 489.11L682.93 484.77L681.273 485.89L684.209 490.231L685.865 489.11ZM692.114 484.77L689.179 489.11L690.836 490.231L693.771 485.89L692.114 484.77ZM745.813 483.01H695.428V485.01H745.813V483.01ZM747.813 402.722V481.01H749.813V402.722H747.813ZM745.813 485.01C748.023 485.01 749.813 483.22 749.813 481.01H747.813C747.813 482.115 746.918 483.01 745.813 483.01V485.01ZM693.771 485.89C694.143 485.34 694.764 485.01 695.428 485.01V483.01C694.1 483.01 692.858 483.67 692.114 484.77L693.771 485.89ZM684.209 490.231C685.795 492.576 689.249 492.576 690.836 490.231L689.179 489.11C688.386 490.283 686.659 490.283 685.865 489.11L684.209 490.231ZM679.617 485.01C680.281 485.01 680.901 485.34 681.273 485.89L682.93 484.77C682.186 483.67 680.945 483.01 679.617 483.01V485.01ZM625.232 481.01C625.232 483.22 627.023 485.01 629.232 485.01V483.01C628.127 483.01 627.232 482.115 627.232 481.01H625.232ZM745.813 400.722C746.918 400.722 747.813 401.618 747.813 402.722H749.813C749.813 400.513 748.023 398.722 745.813 398.722V400.722ZM629.232 398.722C627.023 398.722 625.232 400.513 625.232 402.722H627.232C627.232 401.618 628.127 400.722 629.232 400.722V398.722Z" fill="#D8E0F7" mask="url(#path-15-inside-1)"/>
<path d="M664.872 444.025C664.872 431.331 675.089 421.041 687.693 421.041C690.016 421.041 692.258 421.39 694.369 422.04" stroke="#5F82FF" stroke-width="4" stroke-linecap="round" stroke-linejoin="round"/>
<path fill-rule="evenodd" clip-rule="evenodd" d="M682.781 448.971C685.494 451.703 689.891 451.703 692.604 448.971C695.316 446.239 706.545 427.037 705.552 426.037C704.56 425.038 685.494 436.347 682.781 439.079C680.069 441.81 680.069 446.239 682.781 448.971ZM687.692 446.024C688.788 446.024 689.676 445.129 689.676 444.025C689.676 442.921 688.788 442.026 687.692 442.026C686.596 442.026 685.708 442.921 685.708 444.025C685.708 445.129 686.596 446.024 687.692 446.024Z" fill="#5F82FF"/>
<ellipse cx="667.848" cy="456.017" rx="1.98444" ry="1.99861" fill="#5F82FF"/>
<ellipse cx="675.786" cy="464.011" rx="1.98444" ry="1.99861" fill="#5F82FF"/>
<ellipse cx="687.692" cy="467.009" rx="1.98444" ry="1.99861" fill="#5F82FF"/>
<ellipse cx="699.599" cy="464.011" rx="1.98444" ry="1.99861" fill="#5F82FF"/>
<ellipse cx="706.544" cy="456.017" rx="1.98444" ry="1.99861" fill="#5F82FF"/>
<ellipse cx="709.521" cy="444.025" rx="1.98444" ry="1.99861" fill="#5F82FF"/>
<mask id="path-25-inside-2" fill="white">
<path fill-rule="evenodd" clip-rule="evenodd" d="M205.191 446.692C205.191 445.035 203.848 443.692 202.191 443.692H85.6094C83.9525 443.692 82.6094 445.035 82.6094 446.692V524.98C82.6094 526.637 83.9525 527.98 85.6094 527.98H135.994C136.99 527.98 137.921 528.474 138.479 529.299L141.415 533.64C142.604 535.399 145.195 535.399 146.385 533.64L149.32 529.299C149.878 528.474 150.809 527.98 151.805 527.98H202.191C203.848 527.98 205.191 526.637 205.191 524.98V446.692Z"/>
</mask>
<path fill-rule="evenodd" clip-rule="evenodd" d="M205.191 446.692C205.191 445.035 203.848 443.692 202.191 443.692H85.6094C83.9525 443.692 82.6094 445.035 82.6094 446.692V524.98C82.6094 526.637 83.9525 527.98 85.6094 527.98H135.994C136.99 527.98 137.921 528.474 138.479 529.299L141.415 533.64C142.604 535.399 145.195 535.399 146.385 533.64L149.32 529.299C149.878 528.474 150.809 527.98 151.805 527.98H202.191C203.848 527.98 205.191 526.637 205.191 524.98V446.692Z" fill="white"/>
<path d="M149.32 529.299L150.149 529.86L149.32 529.299ZM141.415 533.64L142.243 533.08L141.415 533.64ZM146.385 533.64L145.556 533.08L146.385 533.64ZM138.479 529.299L137.651 529.86L138.479 529.299ZM85.6094 444.692H202.191V442.692H85.6094V444.692ZM83.6094 524.98V446.692H81.6094V524.98H83.6094ZM135.994 526.98H85.6094V528.98H135.994V526.98ZM142.243 533.08L139.307 528.739L137.651 529.86L140.586 534.2L142.243 533.08ZM148.492 528.739L145.556 533.08L147.213 534.2L150.149 529.86L148.492 528.739ZM202.191 526.98H151.805V528.98H202.191V526.98ZM204.191 446.692V524.98H206.191V446.692H204.191ZM202.191 528.98C204.4 528.98 206.191 527.189 206.191 524.98H204.191C204.191 526.085 203.295 526.98 202.191 526.98V528.98ZM150.149 529.86C150.52 529.31 151.141 528.98 151.805 528.98V526.98C150.477 526.98 149.236 527.639 148.492 528.739L150.149 529.86ZM140.586 534.2C142.172 536.546 145.627 536.546 147.213 534.2L145.556 533.08C144.763 534.253 143.036 534.253 142.243 533.08L140.586 534.2ZM135.994 528.98C136.658 528.98 137.279 529.31 137.651 529.86L139.307 528.739C138.564 527.639 137.322 526.98 135.994 526.98V528.98ZM81.6094 524.98C81.6094 527.189 83.4002 528.98 85.6094 528.98V526.98C84.5048 526.98 83.6094 526.085 83.6094 524.98H81.6094ZM202.191 444.692C203.295 444.692 204.191 445.587 204.191 446.692H206.191C206.191 444.483 204.4 442.692 202.191 442.692V444.692ZM85.6094 442.692C83.4002 442.692 81.6094 444.483 81.6094 446.692H83.6094C83.6094 445.587 84.5048 444.692 85.6094 444.692V442.692Z" fill="#D8E0F7" mask="url(#path-25-inside-2)"/>
<path d="M121.249 487.994C121.249 475.301 131.466 465.01 144.07 465.01C146.393 465.01 148.635 465.36 150.747 466.01" stroke="#5F82FF" stroke-width="4" stroke-linecap="round" stroke-linejoin="round"/>
<path fill-rule="evenodd" clip-rule="evenodd" d="M139.159 492.941C141.871 495.672 146.269 495.672 148.981 492.941C151.694 490.209 162.922 471.006 161.93 470.007C160.938 469.008 141.871 480.316 139.159 483.048C136.446 485.78 136.446 490.209 139.159 492.941ZM144.069 489.993C145.165 489.993 146.054 489.098 146.054 487.994C146.054 486.891 145.165 485.996 144.069 485.996C142.973 485.996 142.085 486.891 142.085 487.994C142.085 489.098 142.973 489.993 144.069 489.993Z" fill="#5F82FF"/>
<ellipse cx="124.226" cy="499.986" rx="1.98444" ry="1.99861" fill="#5F82FF"/>
<ellipse cx="132.164" cy="507.981" rx="1.98444" ry="1.99861" fill="#5F82FF"/>
<ellipse cx="144.07" cy="510.978" rx="1.98444" ry="1.99861" fill="#5F82FF"/>
<ellipse cx="155.977" cy="507.981" rx="1.98444" ry="1.99861" fill="#5F82FF"/>
<ellipse cx="162.922" cy="499.986" rx="1.98444" ry="1.99861" fill="#5F82FF"/>
<ellipse cx="165.898" cy="487.994" rx="1.98444" ry="1.99861" fill="#5F82FF"/>
<mask id="path-35-inside-3" fill="white">
<path fill-rule="evenodd" clip-rule="evenodd" d="M1293.77 218.85C1293.77 217.193 1292.42 215.85 1290.77 215.85H1174.19C1172.53 215.85 1171.19 217.193 1171.19 218.85V297.138C1171.19 298.795 1172.53 300.138 1174.19 300.138H1224.57C1225.57 300.138 1226.5 300.633 1227.06 301.458L1229.99 305.798C1231.18 307.557 1233.77 307.557 1234.96 305.798L1237.9 301.458C1238.46 300.633 1239.39 300.138 1240.38 300.138H1290.77C1292.42 300.138 1293.77 298.795 1293.77 297.138V218.85Z"/>
</mask>
<path fill-rule="evenodd" clip-rule="evenodd" d="M1293.77 218.85C1293.77 217.193 1292.42 215.85 1290.77 215.85H1174.19C1172.53 215.85 1171.19 217.193 1171.19 218.85V297.138C1171.19 298.795 1172.53 300.138 1174.19 300.138H1224.57C1225.57 300.138 1226.5 300.633 1227.06 301.458L1229.99 305.798C1231.18 307.557 1233.77 307.557 1234.96 305.798L1237.9 301.458C1238.46 300.633 1239.39 300.138 1240.38 300.138H1290.77C1292.42 300.138 1293.77 298.795 1293.77 297.138V218.85Z" fill="white"/>
<path d="M1237.9 301.458L1238.73 302.018L1237.9 301.458ZM1234.96 305.798L1234.13 305.238L1234.96 305.798ZM1227.06 301.458L1227.88 300.897L1227.88 300.897L1227.06 301.458ZM1174.19 216.85H1290.77V214.85H1174.19V216.85ZM1172.19 297.138V218.85H1170.19V297.138H1172.19ZM1224.57 299.138H1174.19V301.138H1224.57V299.138ZM1230.82 305.238L1227.88 300.897L1226.23 302.018L1229.16 306.358L1230.82 305.238ZM1237.07 300.897L1234.13 305.238L1235.79 306.358L1238.73 302.018L1237.07 300.897ZM1290.77 299.138H1240.38V301.138H1290.77V299.138ZM1292.77 218.85V297.138H1294.77V218.85H1292.77ZM1290.77 301.138C1292.98 301.138 1294.77 299.347 1294.77 297.138H1292.77C1292.77 298.243 1291.87 299.138 1290.77 299.138V301.138ZM1238.73 302.018C1239.1 301.468 1239.72 301.138 1240.38 301.138V299.138C1239.05 299.138 1237.81 299.797 1237.07 300.897L1238.73 302.018ZM1229.16 306.358C1230.75 308.704 1234.2 308.704 1235.79 306.358L1234.13 305.238C1233.34 306.411 1231.61 306.411 1230.82 305.238L1229.16 306.358ZM1224.57 301.138C1225.24 301.138 1225.86 301.468 1226.23 302.018L1227.88 300.897C1227.14 299.797 1225.9 299.138 1224.57 299.138V301.138ZM1170.19 297.138C1170.19 299.347 1171.98 301.138 1174.19 301.138V299.138C1173.08 299.138 1172.19 298.243 1172.19 297.138H1170.19ZM1290.77 216.85C1291.87 216.85 1292.77 217.746 1292.77 218.85H1294.77C1294.77 216.641 1292.98 214.85 1290.77 214.85V216.85ZM1174.19 214.85C1171.98 214.85 1170.19 216.641 1170.19 218.85H1172.19C1172.19 217.746 1173.08 216.85 1174.19 216.85V214.85Z" fill="#D8E0F7" mask="url(#path-35-inside-3)"/>
<path d="M1209.83 260.153C1209.83 247.459 1220.04 237.169 1232.65 237.169C1234.97 237.169 1237.21 237.518 1239.32 238.168" stroke="#5F82FF" stroke-width="4" stroke-linecap="round" stroke-linejoin="round"/>
<path fill-rule="evenodd" clip-rule="evenodd" d="M1227.74 265.099C1230.45 267.831 1234.85 267.831 1237.56 265.099C1240.27 262.367 1251.5 243.164 1250.51 242.165C1249.51 241.166 1230.45 252.474 1227.74 255.206C1225.02 257.938 1225.02 262.367 1227.74 265.099ZM1232.65 262.151C1233.74 262.151 1234.63 261.256 1234.63 260.153C1234.63 259.049 1233.74 258.154 1232.65 258.154C1231.55 258.154 1230.66 259.049 1230.66 260.153C1230.66 261.256 1231.55 262.151 1232.65 262.151Z" fill="#5F82FF"/>
<ellipse cx="1212.8" cy="272.144" rx="1.98444" ry="1.99861" fill="#5F82FF"/>
<ellipse cx="1220.74" cy="280.139" rx="1.98444" ry="1.99861" fill="#5F82FF"/>
<ellipse cx="1232.65" cy="283.137" rx="1.98444" ry="1.99861" fill="#5F82FF"/>
<ellipse cx="1244.55" cy="280.139" rx="1.98444" ry="1.99861" fill="#5F82FF"/>
<ellipse cx="1251.5" cy="272.144" rx="1.98444" ry="1.99861" fill="#5F82FF"/>
<ellipse cx="1254.48" cy="260.153" rx="1.98444" ry="1.99861" fill="#5F82FF"/>
<mask id="path-45-inside-4" fill="white">
<path fill-rule="evenodd" clip-rule="evenodd" d="M1837.39 66.9556C1837.39 65.2987 1836.05 63.9556 1834.39 63.9556H1717.81C1716.15 63.9556 1714.81 65.2987 1714.81 66.9556V145.244C1714.81 146.9 1716.15 148.244 1717.81 148.244H1768.19C1769.19 148.244 1770.12 148.738 1770.68 149.563L1773.61 153.904C1774.8 155.663 1777.39 155.663 1778.58 153.904L1781.52 149.563C1782.08 148.738 1783.01 148.244 1784.01 148.244H1834.39C1836.05 148.244 1837.39 146.901 1837.39 145.244V66.9556Z"/>
</mask>
<path fill-rule="evenodd" clip-rule="evenodd" d="M1837.39 66.9556C1837.39 65.2987 1836.05 63.9556 1834.39 63.9556H1717.81C1716.15 63.9556 1714.81 65.2987 1714.81 66.9556V145.244C1714.81 146.9 1716.15 148.244 1717.81 148.244H1768.19C1769.19 148.244 1770.12 148.738 1770.68 149.563L1773.61 153.904C1774.8 155.663 1777.39 155.663 1778.58 153.904L1781.52 149.563C1782.08 148.738 1783.01 148.244 1784.01 148.244H1834.39C1836.05 148.244 1837.39 146.901 1837.39 145.244V66.9556Z" fill="white"/>
<path d="M1781.52 149.563L1780.69 149.003L1781.52 149.563ZM1773.61 153.904L1774.44 153.343L1773.61 153.904ZM1778.58 153.904L1777.76 153.343L1778.58 153.904ZM1770.68 149.563L1771.51 149.003L1770.68 149.563ZM1717.81 64.9556H1834.39V62.9556H1717.81V64.9556ZM1715.81 145.244V66.9556H1713.81V145.244H1715.81ZM1768.19 147.244H1717.81V149.244H1768.19V147.244ZM1774.44 153.343L1771.51 149.003L1769.85 150.123L1772.79 154.464L1774.44 153.343ZM1780.69 149.003L1777.76 153.343L1779.41 154.464L1782.35 150.123L1780.69 149.003ZM1834.39 147.244H1784.01V149.244H1834.39V147.244ZM1836.39 66.9556V145.244H1838.39V66.9556H1836.39ZM1834.39 149.244C1836.6 149.244 1838.39 147.453 1838.39 145.244H1836.39C1836.39 146.348 1835.5 147.244 1834.39 147.244V149.244ZM1782.35 150.123C1782.72 149.573 1783.34 149.244 1784.01 149.244V147.244C1782.68 147.244 1781.44 147.903 1780.69 149.003L1782.35 150.123ZM1772.79 154.464C1774.37 156.809 1777.83 156.809 1779.41 154.464L1777.76 153.343C1776.96 154.516 1775.24 154.516 1774.44 153.343L1772.79 154.464ZM1768.19 149.244C1768.86 149.244 1769.48 149.573 1769.85 150.123L1771.51 149.003C1770.76 147.903 1769.52 147.244 1768.19 147.244V149.244ZM1713.81 145.244C1713.81 147.453 1715.6 149.244 1717.81 149.244V147.244C1716.7 147.244 1715.81 146.348 1715.81 145.244H1713.81ZM1834.39 64.9556C1835.5 64.9556 1836.39 65.851 1836.39 66.9556H1838.39C1838.39 64.7464 1836.6 62.9556 1834.39 62.9556V64.9556ZM1717.81 62.9556C1715.6 62.9556 1713.81 64.7464 1713.81 66.9556H1715.81C1715.81 65.851 1716.7 64.9556 1717.81 64.9556V62.9556Z" fill="#D8E0F7" mask="url(#path-45-inside-4)"/>
<path d="M1753.45 108.258C1753.45 95.5645 1763.67 85.2742 1776.27 85.2742C1778.59 85.2742 1780.84 85.6237 1782.95 86.2735" stroke="#5F82FF" stroke-width="4" stroke-linecap="round" stroke-linejoin="round"/>
<path fill-rule="evenodd" clip-rule="evenodd" d="M1771.36 113.204C1774.07 115.936 1778.47 115.936 1781.18 113.204C1783.89 110.473 1795.12 91.27 1794.13 90.2707C1793.14 89.2714 1774.07 100.58 1771.36 103.312C1768.65 106.044 1768.65 110.473 1771.36 113.204ZM1776.27 110.257C1777.37 110.257 1778.25 109.362 1778.25 108.258C1778.25 107.154 1777.37 106.26 1776.27 106.26C1775.17 106.26 1774.28 107.154 1774.28 108.258C1774.28 109.362 1775.17 110.257 1776.27 110.257Z" fill="#5F82FF"/>
<ellipse cx="1756.43" cy="120.25" rx="1.98444" ry="1.99861" fill="#5F82FF"/>
<ellipse cx="1764.36" cy="128.244" rx="1.98444" ry="1.99861" fill="#5F82FF"/>
<ellipse cx="1776.27" cy="131.242" rx="1.98444" ry="1.99861" fill="#5F82FF"/>
<ellipse cx="1788.18" cy="128.244" rx="1.98444" ry="1.99861" fill="#5F82FF"/>
<ellipse cx="1795.12" cy="120.25" rx="1.98444" ry="1.99861" fill="#5F82FF"/>
<ellipse cx="1798.1" cy="108.258" rx="1.98444" ry="1.99861" fill="#5F82FF"/>
<defs>
<filter id="filter0_d" x="1206.82" y="306.11" width="49.9861" height="49.9861" filterUnits="userSpaceOnUse" color-interpolation-filters="sRGB">
<feFlood flood-opacity="0" result="BackgroundImageFix"/>
<feColorMatrix in="SourceAlpha" type="matrix" values="0 0 0 0 0 0 0 0 0 0 0 0 0 0 0 0 0 0 127 0"/>
<feOffset/>
<feGaussianBlur stdDeviation="7.5"/>
<feColorMatrix type="matrix" values="0 0 0 0 0.323144 0 0 0 0 0.512664 0 0 0 0 1 0 0 0 0.25 0"/>
<feBlend mode="normal" in2="BackgroundImageFix" result="effect1_dropShadow"/>
<feBlend mode="normal" in="SourceGraphic" in2="effect1_dropShadow" result="shape"/>
</filter>
<filter id="filter1_d" x="1750.44" y="154.216" width="49.9861" height="49.9861" filterUnits="userSpaceOnUse" color-interpolation-filters="sRGB">
<feFlood flood-opacity="0" result="BackgroundImageFix"/>
<feColorMatrix in="SourceAlpha" type="matrix" values="0 0 0 0 0 0 0 0 0 0 0 0 0 0 0 0 0 0 127 0"/>
<feOffset/>
<feGaussianBlur stdDeviation="7.5"/>
<feColorMatrix type="matrix" values="0 0 0 0 0.323144 0 0 0 0 0.512664 0 0 0 0 1 0 0 0 0.25 0"/>
<feBlend mode="normal" in2="BackgroundImageFix" result="effect1_dropShadow"/>
<feBlend mode="normal" in="SourceGraphic" in2="effect1_dropShadow" result="shape"/>
</filter>
<filter id="filter2_d" x="118.241" y="533.952" width="49.9861" height="49.9861" filterUnits="userSpaceOnUse" color-interpolation-filters="sRGB">
<feFlood flood-opacity="0" result="BackgroundImageFix"/>
<feColorMatrix in="SourceAlpha" type="matrix" values="0 0 0 0 0 0 0 0 0 0 0 0 0 0 0 0 0 0 127 0"/>
<feOffset/>
<feGaussianBlur stdDeviation="7.5"/>
<feColorMatrix type="matrix" values="0 0 0 0 0.323144 0 0 0 0 0.512664 0 0 0 0 1 0 0 0 0.25 0"/>
<feBlend mode="normal" in2="BackgroundImageFix" result="effect1_dropShadow"/>
<feBlend mode="normal" in="SourceGraphic" in2="effect1_dropShadow" result="shape"/>
</filter>
<filter id="filter3_d" x="661.863" y="493.98" width="49.9861" height="49.9861" filterUnits="userSpaceOnUse" color-interpolation-filters="sRGB">
<feFlood flood-opacity="0" result="BackgroundImageFix"/>
<feColorMatrix in="SourceAlpha" type="matrix" values="0 0 0 0 0 0 0 0 0 0 0 0 0 0 0 0 0 0 127 0"/>
<feOffset/>
<feGaussianBlur stdDeviation="7.5"/>
<feColorMatrix type="matrix" values="0 0 0 0 0.323144 0 0 0 0 0.512664 0 0 0 0 1 0 0 0 0.25 0"/>
<feBlend mode="normal" in2="BackgroundImageFix" result="effect1_dropShadow"/>
<feBlend mode="normal" in="SourceGraphic" in2="effect1_dropShadow" result="shape"/>
</filter>
<linearGradient id="paint0_linear" x1="371.031" y1="620.159" x2="371.031" y2="13.3308" gradientUnits="userSpaceOnUse">
<stop stop-color="#4B71FF" stop-opacity="0"/>
<stop offset="1" stop-color="#6B89F8"/>
</linearGradient>
</defs>
</svg>
