<svg width="1920" height="620" viewBox="0 0 1920 620" fill="none" xmlns="http://www.w3.org/2000/svg">
<path d="M0 563.386C270.084 563.386 462.975 516.916 640 519.746C1052.26 526.339 857.589 330.444 1280 330.444C1739.94 330.444 1629.86 157.654 1920 157.654" stroke="#5F82FF" stroke-width="3"/>
<path d="M640 519.746C462.975 516.916 270.084 563.386 0 563.386V620H1920V157.654C1629.86 157.654 1739.94 330.444 1280 330.444C857.589 330.444 1052.26 526.339 640 519.746Z" fill="url(#paint0_linear)" fill-opacity="0.4"/>
<line x1="143.068" y1="349.521" x2="143.068" y2="602.679" stroke="#D8E0F7"/>
<g filter="url(#filter0_d)">
<circle cx="143.234" cy="559.376" r="9.99306" fill="white"/>
<circle cx="143.234" cy="559.376" r="8.99306" stroke="#5E80FE" stroke-width="2"/>
</g>
<mask id="path-6-inside-1" fill="white">
<path fill-rule="evenodd" clip-rule="evenodd" d="M205.191 447.122C205.191 445.465 203.848 444.122 202.191 444.122H85.6094C83.9525 444.122 82.6094 445.465 82.6094 447.122V525.41C82.6094 527.067 83.9525 528.41 85.6094 528.41H135.994C136.99 528.41 137.921 528.904 138.479 529.729L141.415 534.07C142.604 535.829 145.195 535.829 146.385 534.07L149.32 529.729C149.878 528.904 150.809 528.41 151.805 528.41H202.191C203.848 528.41 205.191 527.067 205.191 525.41V447.122Z"/>
</mask>
<path fill-rule="evenodd" clip-rule="evenodd" d="M205.191 447.122C205.191 445.465 203.848 444.122 202.191 444.122H85.6094C83.9525 444.122 82.6094 445.465 82.6094 447.122V525.41C82.6094 527.067 83.9525 528.41 85.6094 528.41H135.994C136.99 528.41 137.921 528.904 138.479 529.729L141.415 534.07C142.604 535.829 145.195 535.829 146.385 534.07L149.32 529.729C149.878 528.904 150.809 528.41 151.805 528.41H202.191C203.848 528.41 205.191 527.067 205.191 525.41V447.122Z" fill="white"/>
<path d="M149.32 529.729L150.149 530.289L149.32 529.729ZM141.415 534.07L140.586 534.63L141.415 534.07ZM138.479 529.729L139.307 529.169L138.479 529.729ZM85.6094 445.122H202.191V443.122H85.6094V445.122ZM83.6094 525.41V447.122H81.6094V525.41H83.6094ZM135.994 527.41H85.6094V529.41H135.994V527.41ZM142.243 533.509L139.307 529.169L137.651 530.289L140.586 534.63L142.243 533.509ZM148.492 529.169L145.556 533.509L147.213 534.63L150.149 530.289L148.492 529.169ZM202.191 527.41H151.805V529.41H202.191V527.41ZM204.191 447.122V525.41H206.191V447.122H204.191ZM202.191 529.41C204.4 529.41 206.191 527.619 206.191 525.41H204.191C204.191 526.514 203.295 527.41 202.191 527.41V529.41ZM150.149 530.289C150.521 529.739 151.141 529.41 151.805 529.41V527.41C150.477 527.41 149.236 528.069 148.492 529.169L150.149 530.289ZM140.586 534.63C142.173 536.975 145.627 536.975 147.213 534.63L145.556 533.509C144.763 534.682 143.036 534.682 142.243 533.509L140.586 534.63ZM135.994 529.41C136.658 529.41 137.279 529.739 137.651 530.289L139.307 529.169C138.564 528.069 137.322 527.41 135.994 527.41V529.41ZM81.6094 525.41C81.6094 527.619 83.4002 529.41 85.6094 529.41V527.41C84.5048 527.41 83.6094 526.514 83.6094 525.41H81.6094ZM202.191 445.122C203.295 445.122 204.191 446.017 204.191 447.122H206.191C206.191 444.912 204.4 443.122 202.191 443.122V445.122ZM85.6094 443.122C83.4002 443.122 81.6094 444.912 81.6094 447.122H83.6094C83.6094 446.017 84.5048 445.122 85.6094 445.122V443.122Z" fill="#D8E0F7" mask="url(#path-6-inside-1)"/>
<path d="M121.249 488.424C121.249 475.73 131.466 465.44 144.07 465.44C146.393 465.44 148.635 465.79 150.747 466.439" stroke="#5F82FF" stroke-width="4" stroke-linecap="round" stroke-linejoin="round"/>
<path fill-rule="evenodd" clip-rule="evenodd" d="M139.158 493.371C141.871 496.102 146.268 496.102 148.981 493.371C151.693 490.639 162.922 471.436 161.929 470.437C160.937 469.438 141.871 480.746 139.158 483.478C136.446 486.21 136.446 490.639 139.158 493.371ZM144.069 490.423C145.165 490.423 146.054 489.528 146.054 488.425C146.054 487.321 145.165 486.426 144.069 486.426C142.973 486.426 142.085 487.321 142.085 488.425C142.085 489.528 142.973 490.423 144.069 490.423Z" fill="#5F82FF"/>
<ellipse cx="124.226" cy="500.416" rx="1.98444" ry="1.99861" fill="#5F82FF"/>
<ellipse cx="132.164" cy="508.41" rx="1.98444" ry="1.99861" fill="#5F82FF"/>
<ellipse cx="144.07" cy="511.408" rx="1.98444" ry="1.99861" fill="#5F82FF"/>
<ellipse cx="155.977" cy="508.41" rx="1.98444" ry="1.99861" fill="#5F82FF"/>
<ellipse cx="162.922" cy="500.416" rx="1.98444" ry="1.99861" fill="#5F82FF"/>
<ellipse cx="165.898" cy="488.424" rx="1.98444" ry="1.99861" fill="#5F82FF"/>
<line x1="686.69" y1="504.081" x2="686.69" y2="582.693" stroke="#D8E0F7"/>
<g filter="url(#filter1_d)">
<circle cx="686.856" cy="519.403" r="9.99306" fill="white"/>
<circle cx="686.856" cy="519.403" r="8.99306" stroke="#5E80FE" stroke-width="2"/>
</g>
<mask id="path-19-inside-2" fill="white">
<path fill-rule="evenodd" clip-rule="evenodd" d="M748.813 403.152C748.813 401.495 747.47 400.152 745.813 400.152H629.231C627.575 400.152 626.231 401.495 626.231 403.152V481.44C626.231 483.097 627.575 484.44 629.231 484.44H679.617C680.613 484.44 681.544 484.935 682.102 485.76L685.037 490.1C686.227 491.859 688.817 491.859 690.007 490.1L692.942 485.76C693.5 484.935 694.432 484.44 695.428 484.44H745.813C747.47 484.44 748.813 483.097 748.813 481.44V403.152Z"/>
</mask>
<path fill-rule="evenodd" clip-rule="evenodd" d="M748.813 403.152C748.813 401.495 747.47 400.152 745.813 400.152H629.231C627.575 400.152 626.231 401.495 626.231 403.152V481.44C626.231 483.097 627.575 484.44 629.231 484.44H679.617C680.613 484.44 681.544 484.935 682.102 485.76L685.037 490.1C686.227 491.859 688.817 491.859 690.007 490.1L692.942 485.76C693.5 484.935 694.432 484.44 695.428 484.44H745.813C747.47 484.44 748.813 483.097 748.813 481.44V403.152Z" fill="white"/>
<path d="M692.942 485.76L692.114 485.2L692.942 485.76ZM685.037 490.1L684.209 490.66L685.037 490.1ZM682.102 485.76L682.93 485.2L682.102 485.76ZM629.231 401.152H745.813V399.152H629.231V401.152ZM627.231 481.44V403.152H625.231V481.44H627.231ZM679.617 483.44H629.231V485.44H679.617V483.44ZM685.865 489.54L682.93 485.2L681.273 486.32L684.209 490.66L685.865 489.54ZM692.114 485.2L689.179 489.54L690.836 490.66L693.771 486.32L692.114 485.2ZM745.813 483.44H695.428V485.44H745.813V483.44ZM747.813 403.152V481.44H749.813V403.152H747.813ZM745.813 485.44C748.022 485.44 749.813 483.65 749.813 481.44H747.813C747.813 482.545 746.918 483.44 745.813 483.44V485.44ZM693.771 486.32C694.143 485.77 694.764 485.44 695.428 485.44V483.44C694.1 483.44 692.858 484.1 692.114 485.2L693.771 486.32ZM684.209 490.66C685.795 493.006 689.249 493.006 690.836 490.66L689.179 489.54C688.386 490.713 686.659 490.713 685.865 489.54L684.209 490.66ZM679.617 485.44C680.281 485.44 680.901 485.77 681.273 486.32L682.93 485.2C682.186 484.1 680.945 483.44 679.617 483.44V485.44ZM625.231 481.44C625.231 483.65 627.022 485.44 629.231 485.44V483.44C628.127 483.44 627.231 482.545 627.231 481.44H625.231ZM745.813 401.152C746.918 401.152 747.813 402.048 747.813 403.152H749.813C749.813 400.943 748.022 399.152 745.813 399.152V401.152ZM629.231 399.152C627.022 399.152 625.231 400.943 625.231 403.152H627.231C627.231 402.048 628.127 401.152 629.231 401.152V399.152Z" fill="#D8E0F7" mask="url(#path-19-inside-2)"/>
<path d="M664.872 444.455C664.872 431.761 675.089 421.471 687.693 421.471C690.016 421.471 692.258 421.82 694.369 422.47" stroke="#5F82FF" stroke-width="4" stroke-linecap="round" stroke-linejoin="round"/>
<path fill-rule="evenodd" clip-rule="evenodd" d="M682.781 449.401C685.493 452.133 689.891 452.133 692.603 449.401C695.316 446.669 706.544 427.466 705.552 426.467C704.56 425.468 685.493 436.776 682.781 439.508C680.068 442.24 680.068 446.669 682.781 449.401ZM687.692 446.454C688.788 446.454 689.676 445.559 689.676 444.455C689.676 443.351 688.788 442.456 687.692 442.456C686.596 442.456 685.707 443.351 685.707 444.455C685.707 445.559 686.596 446.454 687.692 446.454Z" fill="#5F82FF"/>
<ellipse cx="667.848" cy="456.446" rx="1.98444" ry="1.99861" fill="#5F82FF"/>
<ellipse cx="675.786" cy="464.441" rx="1.98444" ry="1.99861" fill="#5F82FF"/>
<ellipse cx="687.692" cy="467.439" rx="1.98444" ry="1.99861" fill="#5F82FF"/>
<ellipse cx="699.599" cy="464.441" rx="1.98444" ry="1.99861" fill="#5F82FF"/>
<ellipse cx="706.545" cy="456.446" rx="1.98444" ry="1.99861" fill="#5F82FF"/>
<ellipse cx="709.521" cy="444.455" rx="1.98444" ry="1.99861" fill="#5F82FF"/>
<line x1="1231.65" y1="266.912" x2="1231.65" y2="518.737" stroke="#D8E0F7"/>
<g filter="url(#filter2_d)">
<circle cx="1231.81" cy="331.534" r="9.99306" fill="white"/>
<circle cx="1231.81" cy="331.534" r="8.99306" stroke="#5E80FE" stroke-width="2"/>
</g>
<mask id="path-32-inside-3" fill="white">
<path fill-rule="evenodd" clip-rule="evenodd" d="M1293.77 219.28C1293.77 217.623 1292.42 216.28 1290.77 216.28H1174.19C1172.53 216.28 1171.19 217.623 1171.19 219.28V297.568C1171.19 299.225 1172.53 300.568 1174.19 300.568H1224.57C1225.57 300.568 1226.5 301.063 1227.06 301.888L1229.99 306.228C1231.18 307.987 1233.77 307.987 1234.96 306.228L1237.9 301.888C1238.46 301.063 1239.39 300.568 1240.38 300.568H1290.77C1292.42 300.568 1293.77 299.225 1293.77 297.568V219.28Z"/>
</mask>
<path fill-rule="evenodd" clip-rule="evenodd" d="M1293.77 219.28C1293.77 217.623 1292.42 216.28 1290.77 216.28H1174.19C1172.53 216.28 1171.19 217.623 1171.19 219.28V297.568C1171.19 299.225 1172.53 300.568 1174.19 300.568H1224.57C1225.57 300.568 1226.5 301.063 1227.06 301.888L1229.99 306.228C1231.18 307.987 1233.77 307.987 1234.96 306.228L1237.9 301.888C1238.46 301.063 1239.39 300.568 1240.38 300.568H1290.77C1292.42 300.568 1293.77 299.225 1293.77 297.568V219.28Z" fill="white"/>
<path d="M1237.9 301.888L1237.07 301.328L1237.9 301.888ZM1229.99 306.228L1230.82 305.668L1229.99 306.228ZM1227.06 301.888L1227.89 301.328L1227.06 301.888ZM1174.19 217.28H1290.77V215.28H1174.19V217.28ZM1172.19 297.568V219.28H1170.19V297.568H1172.19ZM1224.57 299.568H1174.19V301.568H1224.57V299.568ZM1230.82 305.668L1227.89 301.328L1226.23 302.448L1229.16 306.788L1230.82 305.668ZM1237.07 301.328L1234.13 305.668L1235.79 306.788L1238.73 302.448L1237.07 301.328ZM1290.77 299.568H1240.38V301.568H1290.77V299.568ZM1292.77 219.28V297.568H1294.77V219.28H1292.77ZM1290.77 301.568C1292.98 301.568 1294.77 299.778 1294.77 297.568H1292.77C1292.77 298.673 1291.87 299.568 1290.77 299.568V301.568ZM1238.73 302.448C1239.1 301.898 1239.72 301.568 1240.38 301.568V299.568C1239.05 299.568 1237.81 300.227 1237.07 301.328L1238.73 302.448ZM1229.16 306.788C1230.75 309.134 1234.2 309.134 1235.79 306.788L1234.13 305.668C1233.34 306.841 1231.61 306.841 1230.82 305.668L1229.16 306.788ZM1224.57 301.568C1225.24 301.568 1225.86 301.898 1226.23 302.448L1227.89 301.328C1227.14 300.227 1225.9 299.568 1224.57 299.568V301.568ZM1170.19 297.568C1170.19 299.777 1171.98 301.568 1174.19 301.568V299.568C1173.08 299.568 1172.19 298.673 1172.19 297.568H1170.19ZM1290.77 217.28C1291.87 217.28 1292.77 218.176 1292.77 219.28H1294.77C1294.77 217.071 1292.98 215.28 1290.77 215.28V217.28ZM1174.19 215.28C1171.98 215.28 1170.19 217.071 1170.19 219.28H1172.19C1172.19 218.176 1173.08 217.28 1174.19 217.28V215.28Z" fill="#D8E0F7" mask="url(#path-32-inside-3)"/>
<path d="M1209.83 260.583C1209.83 247.889 1220.04 237.599 1232.65 237.599C1234.97 237.599 1237.21 237.948 1239.32 238.598" stroke="#5F82FF" stroke-width="4" stroke-linecap="round" stroke-linejoin="round"/>
<path fill-rule="evenodd" clip-rule="evenodd" d="M1227.74 265.529C1230.45 268.261 1234.85 268.261 1237.56 265.529C1240.27 262.797 1251.5 243.594 1250.51 242.595C1249.51 241.596 1230.45 252.904 1227.74 255.636C1225.02 258.368 1225.02 262.797 1227.74 265.529ZM1232.65 262.581C1233.74 262.581 1234.63 261.687 1234.63 260.583C1234.63 259.479 1233.74 258.584 1232.65 258.584C1231.55 258.584 1230.66 259.479 1230.66 260.583C1230.66 261.687 1231.55 262.581 1232.65 262.581Z" fill="#5F82FF"/>
<ellipse cx="1212.8" cy="272.575" rx="1.98444" ry="1.99861" fill="#5F82FF"/>
<ellipse cx="1220.74" cy="280.569" rx="1.98444" ry="1.99861" fill="#5F82FF"/>
<ellipse cx="1232.65" cy="283.567" rx="1.98444" ry="1.99861" fill="#5F82FF"/>
<ellipse cx="1244.55" cy="280.569" rx="1.98444" ry="1.99861" fill="#5F82FF"/>
<ellipse cx="1251.5" cy="272.575" rx="1.98444" ry="1.99861" fill="#5F82FF"/>
<ellipse cx="1254.48" cy="260.583" rx="1.98444" ry="1.99861" fill="#5F82FF"/>
<line x1="1775.27" y1="0.430176" x2="1775.27" y2="422.804" stroke="#D8E0F7"/>
<g filter="url(#filter3_d)">
<circle cx="1775.43" cy="179.639" r="9.99306" fill="white"/>
<circle cx="1775.43" cy="179.639" r="8.99306" stroke="#5E80FE" stroke-width="2"/>
</g>
<mask id="path-45-inside-4" fill="white">
<path fill-rule="evenodd" clip-rule="evenodd" d="M1837.39 67.386C1837.39 65.7291 1836.05 64.386 1834.39 64.386H1717.81C1716.15 64.386 1714.81 65.7291 1714.81 67.386V145.674C1714.81 147.331 1716.15 148.674 1717.81 148.674H1768.19C1769.19 148.674 1770.12 149.168 1770.68 149.993L1773.61 154.334C1774.8 156.093 1777.4 156.093 1778.58 154.334L1781.52 149.993C1782.08 149.168 1783.01 148.674 1784.01 148.674H1834.39C1836.05 148.674 1837.39 147.331 1837.39 145.674V67.386Z"/>
</mask>
<path fill-rule="evenodd" clip-rule="evenodd" d="M1837.39 67.386C1837.39 65.7291 1836.05 64.386 1834.39 64.386H1717.81C1716.15 64.386 1714.81 65.7291 1714.81 67.386V145.674C1714.81 147.331 1716.15 148.674 1717.81 148.674H1768.19C1769.19 148.674 1770.12 149.168 1770.68 149.993L1773.61 154.334C1774.8 156.093 1777.4 156.093 1778.58 154.334L1781.52 149.993C1782.08 149.168 1783.01 148.674 1784.01 148.674H1834.39C1836.05 148.674 1837.39 147.331 1837.39 145.674V67.386Z" fill="white"/>
<path d="M1781.52 149.993L1780.69 149.433L1781.52 149.993ZM1773.61 154.334L1772.79 154.894L1773.61 154.334ZM1770.68 149.993L1769.85 150.554L1770.68 149.993ZM1717.81 65.386H1834.39V63.386H1717.81V65.386ZM1715.81 145.674V67.386H1713.81V145.674H1715.81ZM1768.19 147.674H1717.81V149.674H1768.19V147.674ZM1774.44 153.774L1771.51 149.433L1769.85 150.554L1772.79 154.894L1774.44 153.774ZM1780.69 149.433L1777.76 153.774L1779.41 154.894L1782.35 150.554L1780.69 149.433ZM1834.39 147.674H1784.01V149.674H1834.39V147.674ZM1836.39 67.386V145.674H1838.39V67.386H1836.39ZM1834.39 149.674C1836.6 149.674 1838.39 147.883 1838.39 145.674H1836.39C1836.39 146.779 1835.5 147.674 1834.39 147.674V149.674ZM1782.35 150.554C1782.72 150.004 1783.34 149.674 1784.01 149.674V147.674C1782.68 147.674 1781.44 148.333 1780.69 149.433L1782.35 150.554ZM1772.79 154.894C1774.37 157.24 1777.83 157.24 1779.41 154.894L1777.76 153.774C1776.96 154.947 1775.24 154.947 1774.44 153.774L1772.79 154.894ZM1768.19 149.674C1768.86 149.674 1769.48 150.004 1769.85 150.554L1771.51 149.433C1770.76 148.333 1769.52 147.674 1768.19 147.674V149.674ZM1713.81 145.674C1713.81 147.883 1715.6 149.674 1717.81 149.674V147.674C1716.7 147.674 1715.81 146.779 1715.81 145.674H1713.81ZM1834.39 65.386C1835.5 65.386 1836.39 66.2814 1836.39 67.386H1838.39C1838.39 65.1768 1836.6 63.386 1834.39 63.386V65.386ZM1717.81 63.386C1715.6 63.386 1713.81 65.1768 1713.81 67.386H1715.81C1715.81 66.2814 1716.7 65.386 1717.81 65.386V63.386Z" fill="#D8E0F7" mask="url(#path-45-inside-4)"/>
<path d="M1753.45 108.688C1753.45 95.9947 1763.67 85.7043 1776.27 85.7043C1778.59 85.7043 1780.84 86.0539 1782.95 86.7037" stroke="#5F82FF" stroke-width="4" stroke-linecap="round" stroke-linejoin="round"/>
<path fill-rule="evenodd" clip-rule="evenodd" d="M1771.36 113.635C1774.07 116.366 1778.47 116.366 1781.18 113.635C1783.89 110.903 1795.12 91.7001 1794.13 90.7008C1793.14 89.7014 1774.07 101.01 1771.36 103.742C1768.65 106.474 1768.65 110.903 1771.36 113.635ZM1776.27 110.687C1777.37 110.687 1778.25 109.792 1778.25 108.689C1778.25 107.585 1777.37 106.69 1776.27 106.69C1775.17 106.69 1774.28 107.585 1774.28 108.689C1774.28 109.792 1775.17 110.687 1776.27 110.687Z" fill="#5F82FF"/>
<ellipse cx="1756.43" cy="120.68" rx="1.98444" ry="1.99861" fill="#5F82FF"/>
<ellipse cx="1764.36" cy="128.674" rx="1.98444" ry="1.99861" fill="#5F82FF"/>
<ellipse cx="1776.27" cy="131.672" rx="1.98444" ry="1.99861" fill="#5F82FF"/>
<ellipse cx="1788.18" cy="128.674" rx="1.98444" ry="1.99861" fill="#5F82FF"/>
<ellipse cx="1795.12" cy="120.68" rx="1.98444" ry="1.99861" fill="#5F82FF"/>
<ellipse cx="1798.1" cy="108.688" rx="1.98444" ry="1.99861" fill="#5F82FF"/>
<defs>
<filter id="filter0_d" x="118.241" y="534.383" width="49.9861" height="49.9861" filterUnits="userSpaceOnUse" color-interpolation-filters="sRGB">
<feFlood flood-opacity="0" result="BackgroundImageFix"/>
<feColorMatrix in="SourceAlpha" type="matrix" values="0 0 0 0 0 0 0 0 0 0 0 0 0 0 0 0 0 0 127 0"/>
<feOffset/>
<feGaussianBlur stdDeviation="7.5"/>
<feColorMatrix type="matrix" values="0 0 0 0 0.323144 0 0 0 0 0.512664 0 0 0 0 1 0 0 0 0.25 0"/>
<feBlend mode="normal" in2="BackgroundImageFix" result="effect1_dropShadow"/>
<feBlend mode="normal" in="SourceGraphic" in2="effect1_dropShadow" result="shape"/>
</filter>
<filter id="filter1_d" x="661.863" y="494.41" width="49.9861" height="49.9861" filterUnits="userSpaceOnUse" color-interpolation-filters="sRGB">
<feFlood flood-opacity="0" result="BackgroundImageFix"/>
<feColorMatrix in="SourceAlpha" type="matrix" values="0 0 0 0 0 0 0 0 0 0 0 0 0 0 0 0 0 0 127 0"/>
<feOffset/>
<feGaussianBlur stdDeviation="7.5"/>
<feColorMatrix type="matrix" values="0 0 0 0 0.323144 0 0 0 0 0.512664 0 0 0 0 1 0 0 0 0.25 0"/>
<feBlend mode="normal" in2="BackgroundImageFix" result="effect1_dropShadow"/>
<feBlend mode="normal" in="SourceGraphic" in2="effect1_dropShadow" result="shape"/>
</filter>
<filter id="filter2_d" x="1206.82" y="306.541" width="49.9861" height="49.9861" filterUnits="userSpaceOnUse" color-interpolation-filters="sRGB">
<feFlood flood-opacity="0" result="BackgroundImageFix"/>
<feColorMatrix in="SourceAlpha" type="matrix" values="0 0 0 0 0 0 0 0 0 0 0 0 0 0 0 0 0 0 127 0"/>
<feOffset/>
<feGaussianBlur stdDeviation="7.5"/>
<feColorMatrix type="matrix" values="0 0 0 0 0.323144 0 0 0 0 0.512664 0 0 0 0 1 0 0 0 0.25 0"/>
<feBlend mode="normal" in2="BackgroundImageFix" result="effect1_dropShadow"/>
<feBlend mode="normal" in="SourceGraphic" in2="effect1_dropShadow" result="shape"/>
</filter>
<filter id="filter3_d" x="1750.44" y="154.646" width="49.9861" height="49.9861" filterUnits="userSpaceOnUse" color-interpolation-filters="sRGB">
<feFlood flood-opacity="0" result="BackgroundImageFix"/>
<feColorMatrix in="SourceAlpha" type="matrix" values="0 0 0 0 0 0 0 0 0 0 0 0 0 0 0 0 0 0 127 0"/>
<feOffset/>
<feGaussianBlur stdDeviation="7.5"/>
<feColorMatrix type="matrix" values="0 0 0 0 0.323144 0 0 0 0 0.512664 0 0 0 0 1 0 0 0 0.25 0"/>
<feBlend mode="normal" in2="BackgroundImageFix" result="effect1_dropShadow"/>
<feBlend mode="normal" in="SourceGraphic" in2="effect1_dropShadow" result="shape"/>
</filter>
<linearGradient id="paint0_linear" x1="371.031" y1="620.59" x2="371.031" y2="13.761" gradientUnits="userSpaceOnUse">
<stop stop-color="#4B71FF" stop-opacity="0"/>
<stop offset="1" stop-color="#6B89F8"/>
</linearGradient>
</defs>
</svg>
